<svg xmlns="http://www.w3.org/2000/svg" width="106" height="32" fill="none">
  <path fill="#fff" d="M9.38 25.42c-1.503 0-2.758-.35-3.766-1.05-1.008-.7-1.769-1.652-2.282-2.856-.504-1.204-.756-2.562-.756-4.074s.252-2.87.756-4.074c.504-1.204 1.246-2.156 2.226-2.856.98-.7 2.189-1.05 3.626-1.05 1.447 0 2.707.345 3.78 1.036 1.073.69 1.904 1.638 2.492 2.842.597 1.195.896 2.562.896 4.102 0 1.512-.294 2.87-.882 4.074-.579 1.204-1.39 2.156-2.436 2.856-1.045.7-2.263 1.05-3.654 1.05Zm-7.448 6.3V9.88h3.36v10.36h.476v11.48H1.932Zm6.832-9.688c.821 0 1.493-.205 2.016-.616.523-.41.91-.961 1.162-1.652.252-.7.378-1.475.378-2.324 0-.84-.13-1.605-.392-2.296-.261-.7-.667-1.255-1.218-1.666-.541-.42-1.237-.63-2.086-.63-.793 0-1.437.191-1.932.574-.485.383-.84.92-1.064 1.61-.224.69-.336 1.493-.336 2.408 0 .915.112 1.717.336 2.408.224.69.588 1.227 1.092 1.61.513.383 1.195.574 2.044.574Zm16.577 3.388c-1.55 0-2.917-.331-4.102-.994a7.35 7.35 0 0 1-2.772-2.758c-.663-1.176-.994-2.52-.994-4.032 0-1.652.326-3.09.98-4.312.653-1.223 1.554-2.17 2.702-2.842 1.148-.681 2.468-1.022 3.962-1.022 1.586 0 2.935.373 4.046 1.12 1.11.747 1.932 1.797 2.464 3.15s.718 2.945.56 4.774H28.42v-1.4c0-1.54-.248-2.646-.742-3.318-.486-.681-1.284-1.022-2.394-1.022-1.298 0-2.254.397-2.87 1.19-.607.784-.91 1.946-.91 3.486 0 1.41.303 2.501.91 3.276.616.765 1.516 1.148 2.702 1.148.746 0 1.386-.163 1.918-.49.532-.327.938-.798 1.218-1.414l3.808 1.092c-.57 1.381-1.47 2.455-2.702 3.22a7.426 7.426 0 0 1-4.018 1.148Zm-5.012-6.916v-2.828h10.024v2.828H20.329ZM43.299 25c-1.044.196-2.071.28-3.08.252-.998-.019-1.894-.191-2.687-.518a3.633 3.633 0 0 1-1.792-1.61c-.373-.69-.57-1.39-.588-2.1a94.603 94.603 0 0 1-.028-2.436V5.68h3.808v12.684c0 .588.005 1.12.014 1.596.019.467.117.84.294 1.12.336.532.872.821 1.61.868.737.047 1.554.01 2.45-.112V25ZM32.549 12.82V9.88H43.3v2.94H32.548ZM45.829 25V4.42h3.808V25H45.83Z"/>
  <path fill="#fff" fill-rule="evenodd" d="M63.493 10.434c-1.839-2.171-4.906-2.756-7.21-.767-2.306 1.989-2.63 5.314-.82 7.666 1.16 1.507 4.128 4.3 6.113 6.114.66.603.989.904 1.384 1.025.34.104.727.104 1.067 0 .395-.12.725-.422 1.384-1.025 1.985-1.814 4.954-4.607 6.113-6.114 1.81-2.352 1.525-5.698-.82-7.666-2.343-1.968-5.371-1.404-7.21.768Z" clip-rule="evenodd"/>
  <path fill="#fff" d="M81.048 25 75.56 9.88h3.374l3.808 10.962L86.536 9.88h3.388L84.436 25h-3.388Zm16.596.42c-1.531 0-2.875-.331-4.032-.994a7.079 7.079 0 0 1-2.716-2.758c-.644-1.176-.966-2.53-.966-4.06 0-1.652.317-3.085.952-4.298.634-1.223 1.516-2.17 2.646-2.842 1.129-.672 2.436-1.008 3.92-1.008 1.568 0 2.898.369 3.99 1.106 1.101.728 1.918 1.76 2.45 3.094.532 1.335.732 2.907.602 4.718h-3.346v-1.232c-.01-1.643-.299-2.842-.868-3.598-.57-.756-1.466-1.134-2.688-1.134-1.382 0-2.408.43-3.08 1.288-.672.85-1.008 2.095-1.008 3.738 0 1.53.336 2.716 1.008 3.556.672.84 1.652 1.26 2.94 1.26.83 0 1.544-.182 2.142-.546.606-.373 1.073-.91 1.4-1.61l3.332 1.008c-.579 1.363-1.475 2.422-2.688 3.178-1.204.756-2.534 1.134-3.99 1.134Zm-5.208-7.042V15.83h10.402v2.548H92.436Z"/>
</svg>
