<svg xmlns="http://www.w3.org/2000/svg" width="76" height="23" fill="none">
  <path fill="#fff" d="M6.59 18.3c-1.053 0-1.937-.25-2.65-.75-.713-.5-1.25-1.18-1.61-2.04-.36-.867-.54-1.837-.54-2.91 0-1.087.18-2.06.54-2.92.36-.86.887-1.537 1.58-2.03.7-.5 1.563-.75 2.59-.75 1.02 0 1.903.25 2.65.75.753.493 1.337 1.17 1.75 2.03.413.853.62 1.827.62 2.92 0 1.08-.203 2.05-.61 2.91-.407.86-.98 1.54-1.72 2.04s-1.607.75-2.6.75Zm-5.21 4.5V7.2h2.13v7.58h.3v8.02H1.38Zm4.84-6.66c.627 0 1.143-.157 1.55-.47.407-.313.707-.737.9-1.27.2-.54.3-1.14.3-1.8 0-.653-.1-1.247-.3-1.78-.2-.54-.51-.967-.93-1.28-.42-.32-.953-.48-1.6-.48-.613 0-1.113.15-1.5.45-.387.293-.673.707-.86 1.24-.18.527-.27 1.143-.27 1.85 0 .7.09 1.317.27 1.85.187.533.477.95.87 1.25.4.293.923.44 1.57.44Zm11.614 2.16c-1.093 0-2.053-.237-2.88-.71a5.056 5.056 0 0 1-1.94-1.97c-.46-.84-.69-1.807-.69-2.9 0-1.18.227-2.203.68-3.07.454-.873 1.084-1.55 1.89-2.03.807-.48 1.74-.72 2.8-.72 1.12 0 2.07.263 2.85.79.787.52 1.37 1.257 1.75 2.21.38.953.524 2.077.43 3.37h-2.39v-.88c-.006-1.173-.213-2.03-.62-2.57-.406-.54-1.046-.81-1.92-.81-.986 0-1.72.307-2.2.92-.48.607-.72 1.497-.72 2.67 0 1.093.24 1.94.72 2.54.48.6 1.18.9 2.1.9.594 0 1.104-.13 1.53-.39.434-.267.767-.65 1-1.15l2.38.72c-.413.973-1.053 1.73-1.92 2.27-.86.54-1.81.81-2.85.81Zm-3.72-5.03v-1.82h7.43v1.82h-7.43ZM30.485 18a9.849 9.849 0 0 1-2.1.17c-.68-.013-1.29-.137-1.83-.37-.54-.24-.95-.617-1.23-1.13a3.22 3.22 0 0 1-.39-1.43 60.58 60.58 0 0 1-.02-1.65V4.2h2.4v9.25c0 .433.004.813.01 1.14.014.327.084.593.21.8.24.4.624.623 1.15.67.527.047 1.127.02 1.8-.08V18Zm-7.53-8.91V7.2h7.53v1.89h-7.53ZM32.209 18V3.3h2.41V18h-2.41Z"/>
  <path fill="#fff" fill-rule="evenodd" d="M45.495 7.017c-1.359-1.605-3.626-2.037-5.33-.567-1.703 1.47-1.943 3.927-.605 5.666.857 1.113 3.051 3.178 4.518 4.519.487.445.731.668 1.023.757.251.077.538.077.789 0 .292-.089.536-.312 1.023-.757 1.467-1.341 3.661-3.406 4.518-4.52 1.338-1.738 1.127-4.21-.605-5.665-1.733-1.455-3.97-1.038-5.33.567Z" clip-rule="evenodd"/>
  <path fill="#fff" d="M58.32 18 54.4 7.2h2.41l2.72 7.83 2.71-7.83h2.42L60.74 18h-2.42Zm11.854.3c-1.093 0-2.053-.237-2.88-.71a5.055 5.055 0 0 1-1.94-1.97c-.46-.84-.69-1.807-.69-2.9 0-1.18.227-2.203.68-3.07.453-.873 1.083-1.55 1.89-2.03.807-.48 1.74-.72 2.8-.72 1.12 0 2.07.263 2.85.79.787.52 1.37 1.257 1.75 2.21.38.953.523 2.077.43 3.37h-2.39v-.88c-.007-1.173-.213-2.03-.62-2.57-.407-.54-1.047-.81-1.92-.81-.987 0-1.72.307-2.2.92-.48.607-.72 1.497-.72 2.67 0 1.093.24 1.94.72 2.54.48.6 1.18.9 2.1.9.593 0 1.103-.13 1.53-.39.433-.267.767-.65 1-1.15l2.38.72c-.413.973-1.053 1.73-1.92 2.27-.86.54-1.81.81-2.85.81Zm-3.72-5.03v-1.82h7.43v1.82h-7.43Z"/>
</svg>
