<svg xmlns="http://www.w3.org/2000/svg" width="105" height="32" fill="none">
  <path fill="#262626" d="M9.226 25.42c-1.475 0-2.711-.35-3.71-1.05-.999-.7-1.75-1.652-2.254-2.856-.504-1.213-.756-2.571-.756-4.074 0-1.521.252-2.884.756-4.088.504-1.204 1.241-2.151 2.212-2.842.98-.7 2.189-1.05 3.626-1.05 1.428 0 2.665.35 3.71 1.05 1.055.69 1.871 1.638 2.45 2.842.579 1.195.868 2.557.868 4.088 0 1.512-.285 2.87-.854 4.074-.57 1.204-1.372 2.156-2.408 2.856-1.036.7-2.25 1.05-3.64 1.05Zm-7.294 6.3V9.88h2.982v10.612h.42V31.72H1.932Zm6.776-9.324c.877 0 1.6-.22 2.17-.658.57-.439.99-1.031 1.26-1.778.28-.756.42-1.596.42-2.52 0-.915-.14-1.745-.42-2.492-.28-.756-.714-1.353-1.302-1.792-.588-.448-1.335-.672-2.24-.672-.859 0-1.559.21-2.1.63-.541.41-.943.99-1.204 1.736-.252.737-.378 1.6-.378 2.59 0 .98.126 1.843.378 2.59.261.747.667 1.33 1.218 1.75.56.41 1.293.616 2.198.616Zm16.26 3.024c-1.53 0-2.875-.331-4.032-.994a7.079 7.079 0 0 1-2.716-2.758c-.644-1.176-.966-2.53-.966-4.06 0-1.652.317-3.085.952-4.298.635-1.223 1.517-2.17 2.646-2.842 1.13-.672 2.436-1.008 3.92-1.008 1.568 0 2.898.369 3.99 1.106 1.101.728 1.918 1.76 2.45 3.094.532 1.335.733 2.907.602 4.718h-3.346v-1.232c-.01-1.643-.299-2.842-.868-3.598-.57-.756-1.465-1.134-2.688-1.134-1.381 0-2.408.43-3.08 1.288-.672.85-1.008 2.095-1.008 3.738 0 1.53.336 2.716 1.008 3.556.672.84 1.652 1.26 2.94 1.26.83 0 1.545-.182 2.142-.546.607-.373 1.073-.91 1.4-1.61l3.332 1.008c-.579 1.363-1.475 2.422-2.688 3.178-1.204.756-2.534 1.134-3.99 1.134Zm-5.208-7.042V15.83h10.402v2.548H19.76ZM42.68 25c-.999.187-1.979.266-2.94.238-.952-.019-1.806-.191-2.562-.518a3.55 3.55 0 0 1-1.722-1.582 4.507 4.507 0 0 1-.546-2.002 85.049 85.049 0 0 1-.028-2.31V5.68h3.36v12.95c0 .607.004 1.139.014 1.596.018.457.116.83.294 1.12.336.56.872.873 1.61.938.737.065 1.577.028 2.52-.112V25ZM32.138 12.526V9.88H42.68v2.646H32.138ZM45.09 25V4.42h3.374V25H45.09Z"/>
  <path fill="#F6B83D" fill-rule="evenodd" d="M62.493 10.434c-1.839-2.171-4.906-2.756-7.21-.767-2.306 1.989-2.63 5.314-.82 7.666 1.16 1.507 4.128 4.3 6.113 6.114.66.603.989.904 1.384 1.025.34.104.727.104 1.067 0 .395-.12.725-.422 1.384-1.025 1.985-1.814 4.954-4.607 6.113-6.114 1.81-2.352 1.525-5.698-.82-7.666-2.343-1.968-5.371-1.404-7.21.768Z" clip-rule="evenodd"/>
  <path fill="#262626" d="M80.048 25 74.56 9.88h3.374l3.808 10.962L85.536 9.88h3.388L83.436 25h-3.388Zm16.596.42c-1.531 0-2.875-.331-4.032-.994a7.079 7.079 0 0 1-2.716-2.758c-.644-1.176-.966-2.53-.966-4.06 0-1.652.317-3.085.952-4.298.634-1.223 1.516-2.17 2.646-2.842 1.129-.672 2.436-1.008 3.92-1.008 1.568 0 2.898.369 3.99 1.106 1.101.728 1.918 1.76 2.45 3.094.532 1.335.732 2.907.602 4.718h-3.346v-1.232c-.01-1.643-.299-2.842-.868-3.598-.57-.756-1.466-1.134-2.688-1.134-1.382 0-2.408.43-3.08 1.288-.672.85-1.008 2.095-1.008 3.738 0 1.53.336 2.716 1.008 3.556.672.84 1.652 1.26 2.94 1.26.83 0 1.544-.182 2.142-.546.606-.373 1.073-.91 1.4-1.61l3.332 1.008c-.579 1.363-1.475 2.422-2.688 3.178-1.204.756-2.534 1.134-3.99 1.134Zm-5.208-7.042V15.83h10.402v2.548H91.436Z"/>
</svg>
